<svg width="512" height="449" viewBox="0 0 512 449" fill="none" xmlns="http://www.w3.org/2000/svg">
<path d="M464 224.5H48C35.2696 224.5 23.0606 229.557 14.0589 238.559C5.05713 247.561 0 259.77 0 272.5C0 285.23 5.05713 297.439 14.0589 306.441C23.0606 315.443 35.2696 320.5 48 320.5H464C476.73 320.5 488.939 315.443 497.941 306.441C506.943 297.439 512 285.23 512 272.5C512 259.77 506.943 247.561 497.941 238.559C488.939 229.557 476.73 224.5 464 224.5ZM480 352.5H32C27.7565 352.5 23.6869 354.186 20.6863 357.186C17.6857 360.187 16 364.257 16 368.5V384.5C16 401.474 22.7428 417.752 34.7452 429.755C46.7475 441.757 63.0261 448.5 80 448.5H432C448.974 448.5 465.252 441.757 477.255 429.755C489.257 417.752 496 401.474 496 384.5V368.5C496 364.257 494.314 360.187 491.314 357.186C488.313 354.186 484.243 352.5 480 352.5ZM58.64 192.5H453.36C487.93 192.5 507.98 148.6 488.18 116.62C448 51.7 359.55 0.6 256 0.5C152.46 0.6 64 51.7 23.82 116.61C4 148.59 24.07 192.5 58.64 192.5Z" fill="black"/>
</svg>
